<?xml version="1.0" encoding="UTF-8"?>
<svg id="logosandtypes_com" data-name="logosandtypes com" xmlns="http://www.w3.org/2000/svg" viewBox="0 0 150 150">
  <defs>
    <style>
      .cls-1 {
        fill: #f3a120;
      }

      .cls-2 {
        fill: #db2523;
      }

      .cls-3 {
        fill: #801e36;
      }

      .cls-4 {
        fill: #c00321;
      }

      .cls-5 {
        fill: none;
      }

      .cls-6 {
        fill: #e25a09;
      }
    </style>
  </defs>
  <path class="cls-5" d="M0,0H150V150H0V0Z"/>
  <path class="cls-6" d="M63.39,104.27l-11.52,21.66c-4.16,7.81-12.14,12.26-20.41,12.26-3.66,0-7.37-.89-10.81-2.71-11.26-5.98-15.53-19.97-9.54-31.23l2.81-5.29c4.02,3.31,49.49,5.31,49.49,5.31Z"/>
  <path class="cls-6" d="M142.33,115.06c0,8.27-4.44,16.26-12.26,20.41-11.26,5.98-25.22,1.71-31.21-9.54l-11.52-21.66s45.46-2,49.47-5.31l2.81,5.29c1.83,3.44,2.71,7.16,2.71,10.81Z"/>
  <polygon class="cls-1" points="87.34 104.27 63.39 104.27 75.4 79.21 87.34 104.27"/>
  <path class="cls-1" d="M35.7,57.98c-5.31,13.34-12.98,27.07-21.8,40.98-5.12-4.25-8.37-10.66-8.37-17.84,0-12.78,10.35-23.15,23.15-23.15h7.02Z"/>
  <path class="cls-1" d="M145.2,81.12c0,7.18-3.27,13.58-8.39,17.84-8.7-12.29-15.96-25.95-21.78-40.98h7.02c12.78,0,23.15,10.37,23.15,23.15Z"/>
  <path class="cls-6" d="M62.73,57.98l-27.83,1.5L54.44,22.73c-2.96,6.35,8.29,35.25,8.29,35.25Z"/>
  <path class="cls-6" d="M115.82,59.48l-27.83-1.5s11.24-29.11,8.16-35.5l19.67,37Z"/>
  <path class="cls-2" d="M75.35,81.74l-11.97,22.53H28.68c-5.62,0-10.76-2-14.78-5.31l21.8-40.98h27.03c5.84,6.86,9.65,15.04,12.62,23.76Z"/>
  <path class="cls-2" d="M136.81,98.96c-4,3.31-9.16,5.31-14.76,5.31h-34.71l-11.99-22.53c3-8.17,7.14-16.1,12.64-23.76h27.03s21.78,40.98,21.78,40.98Z"/>
  <path class="cls-3" d="M87.99,57.98l-12.64,23.76-12.62-23.76c8.23-1.59,16.67-1.46,25.26,0Z"/>
  <path class="cls-4" d="M95.75,43.38l-7.75,14.6h-25.26c-5.4-9.95-14.89-24.12-8.23-35.34,13.82-27.65,55.21-7.12,41.25,20.74Z"/>
</svg>