<?xml version="1.0" encoding="utf-8"?>
<!-- Generator: Adobe Illustrator 26.0.3, SVG Export Plug-In . SVG Version: 6.00 Build 0)  -->
<svg version="1.0" id="katman_1" xmlns="http://www.w3.org/2000/svg" xmlns:xlink="http://www.w3.org/1999/xlink" x="0px" y="0px"
	 viewBox="0 0 800 600" style="enable-background:new 0 0 800 600;" xml:space="preserve">
<style type="text/css">
	.st0{fill:#1DA7E7;}
	.st1{fill:#7AC326;}
	.st2{fill:#706D67;}
</style>
<path class="st0" d="M80.3,243.5h56.3v13.6H95.9V281h38.4V294H95.9v36.7H80.3V243.5 M142.8,271.6H157v9.9h0.2
	c1.6-3.4,3.9-6.2,6.9-8.4c3-2.1,6.4-3.2,10.3-3.2c0.6,0,1.2,0,1.8,0.1c0.7,0,1.2,0.1,1.7,0.3v13.6c-0.8-0.2-1.7-0.4-2.5-0.5
	c-0.7-0.1-1.4-0.1-2-0.1c-3.4,0-6.1,0.6-8.1,1.8c-2.1,1.2-3.7,2.7-4.8,4.4c-1.2,1.7-1.9,3.5-2.3,5.3c-0.4,1.8-0.6,3.2-0.6,4.3v31.7
	h-14.8V271.6 M223.8,295.3c0-1.9-0.3-3.7-0.8-5.4c-0.5-1.7-1.4-3.2-2.5-4.6c-1.2-1.3-2.6-2.4-4.4-3.1c-1.8-0.8-3.8-1.2-6.2-1.2
	c-4.4,0-8.2,1.3-11.3,4c-3.1,2.7-4.8,6.1-5.1,10.3H223.8z M238.6,301.9v2c0,0.7,0,1.3-0.1,2h-45c0.2,2.1,0.7,4.1,1.7,5.9
	c0.9,1.8,2.2,3.3,3.8,4.6c1.6,1.3,3.3,2.3,5.3,3c2,0.7,4.1,1.1,6.2,1.1c3.7,0,6.8-0.7,9.4-2c2.5-1.3,4.7-3.3,6.3-5.6l9.9,7.9
	c-5.8,7.9-14.3,11.8-25.4,11.8c-4.6,0-8.8-0.7-12.7-2.2c-3.9-1.4-7.2-3.5-10-6.1c-2.8-2.6-5.1-5.9-6.7-9.7c-1.6-3.8-2.4-8.2-2.4-13
	c0-4.8,0.8-9.1,2.4-13c1.6-3.9,3.8-7.2,6.6-10c2.8-2.8,6.1-4.9,9.9-6.4c3.8-1.5,7.9-2.3,12.4-2.3c4.1,0,7.9,0.7,11.4,2
	c3.4,1.3,6.5,3.4,9.1,6c2.5,2.7,4.5,6,6,10C237.8,291.9,238.6,296.6,238.6,301.9 M260,300.9c0,2.3,0.3,4.6,1,6.9
	c0.7,2.2,1.7,4.3,3.1,6.2c1.4,1.8,3.2,3.3,5.3,4.4c2.1,1.2,4.6,1.7,7.5,1.7c2.7,0,5.1-0.6,7.3-1.7c2.1-1.1,4-2.6,5.5-4.4
	c1.5-1.8,2.7-3.9,3.4-6.1c0.8-2.3,1.2-4.5,1.2-6.8c0-2.3-0.4-4.6-1.2-6.9c-0.8-2.3-1.9-4.3-3.4-6.2c-1.5-1.8-3.4-3.3-5.5-4.4
	c-2.1-1.2-4.6-1.7-7.3-1.7c-2.9,0-5.4,0.6-7.5,1.7c-2.1,1.1-3.9,2.6-5.3,4.4c-1.4,1.8-2.5,3.9-3.1,6.1
	C260.4,296.3,260,298.6,260,300.9z M308.7,330.8h-14v-8.9h-0.2c-2.1,3.4-4.9,6.1-8.6,7.9c-3.7,1.8-7.6,2.7-11.8,2.7
	c-4.5,0-8.6-0.8-12.1-2.5c-3.6-1.7-6.6-3.9-9.1-6.8c-2.5-2.8-4.4-6.2-5.8-10c-1.4-3.8-2-7.9-2-12.3c0-4.4,0.7-8.4,2.1-12.2
	c1.4-3.8,3.4-7.1,5.9-9.9c2.6-2.8,5.7-5,9.1-6.6c3.5-1.6,7.4-2.4,11.6-2.4c2.7,0,5.1,0.3,7.3,0.9c2.1,0.6,4,1.4,5.6,2.3
	c1.6,0.9,3,1.9,4.1,3c1.2,1.1,2.1,2.1,2.8,3.1h0.4v-35.3h14.8V330.8 M330.7,300.9c0,2.3,0.3,4.6,1,6.9c0.7,2.3,1.7,4.4,3.1,6.2
	c1.4,1.8,3.2,3.3,5.3,4.4c2.1,1.2,4.6,1.7,7.5,1.7c2.7,0,5.1-0.6,7.3-1.7c2.1-1.1,4-2.6,5.5-4.4c1.5-1.8,2.7-3.9,3.5-6.1
	c0.8-2.3,1.2-4.5,1.2-6.8c0-2.3-0.4-4.6-1.2-6.9c-0.8-2.3-1.9-4.3-3.5-6.2c-1.5-1.8-3.4-3.3-5.5-4.4c-2.1-1.2-4.6-1.7-7.3-1.7
	c-2.9,0-5.4,0.6-7.5,1.7c-2.1,1.1-3.9,2.6-5.3,4.4c-1.4,1.8-2.5,3.9-3.1,6.1C331.1,296.3,330.7,298.6,330.7,300.9L330.7,300.9z
	 M379.4,330.8h-14v-8.9h-0.2c-2.1,3.4-4.9,6.1-8.6,7.9c-3.7,1.8-7.6,2.7-11.8,2.7c-4.5,0-8.6-0.8-12.1-2.5c-3.6-1.7-6.6-3.9-9.1-6.8
	c-2.5-2.8-4.4-6.2-5.8-10c-1.4-3.8-2-7.9-2-12.3c0-4.4,0.7-8.4,2.1-12.2c1.4-3.8,3.4-7.1,5.9-9.9c2.6-2.8,5.7-5,9.1-6.6
	c3.5-1.6,7.4-2.4,11.6-2.4c2.7,0,5.1,0.3,7.3,0.9c2.1,0.6,4,1.4,5.6,2.3c1.6,0.9,3,1.9,4.1,3c1.2,1.1,2.1,2.1,2.8,3.1h0.4v-35.3
	h14.8L379.4,330.8 M392.2,271.6H407v59.1h-14.8V271.6z M390.1,251.5c0-2.4,0.9-4.5,2.7-6.2c1.8-1.8,4-2.6,6.7-2.6s5,0.8,6.8,2.5
	c1.8,1.7,2.8,3.8,2.8,6.3c0,2.5-0.9,4.7-2.8,6.3c-1.8,1.7-4.1,2.5-6.8,2.5s-5-0.9-6.7-2.6C391,256,390.1,253.9,390.1,251.5
	 M461.1,295.3c0-1.9-0.3-3.7-0.8-5.4c-0.5-1.7-1.4-3.2-2.5-4.6c-1.2-1.3-2.6-2.4-4.4-3.1c-1.8-0.8-3.8-1.2-6.2-1.2
	c-4.4,0-8.2,1.3-11.3,4c-3.1,2.7-4.8,6.1-5.1,10.3H461.1z M475.9,301.9v2c0,0.7,0,1.3-0.1,2h-45c0.2,2.1,0.7,4.1,1.7,5.9
	c0.9,1.8,2.2,3.3,3.8,4.6c1.6,1.3,3.4,2.3,5.3,3c2,0.7,4.1,1.1,6.2,1.1c3.7,0,6.8-0.7,9.4-2c2.5-1.3,4.7-3.3,6.3-5.6l9.9,7.9
	c-5.8,7.9-14.3,11.8-25.4,11.8c-4.6,0-8.8-0.7-12.7-2.2c-3.9-1.4-7.2-3.5-10-6.1c-2.8-2.6-5.1-5.9-6.7-9.7c-1.6-3.8-2.4-8.2-2.4-13
	c0-4.8,0.8-9.1,2.4-13c1.6-3.9,3.8-7.2,6.6-10c2.8-2.8,6.1-4.9,9.9-6.4c3.8-1.5,7.9-2.3,12.4-2.3c4.1,0,7.9,0.7,11.4,2
	c3.4,1.3,6.5,3.4,9.1,6c2.5,2.7,4.5,6,6,10C475.2,291.9,475.9,296.6,475.9,301.9"/>
<path class="st1" d="M495.9,243.5h24.3l22.7,62h0.4l22.4-62H590v87.2h-15.4v-70.1h-0.2l-26.5,70.1h-10.8l-26.1-70.1h-0.2v70.1h-14.8
	L495.9,243.5 M639.5,303.8h-3.3c-2.4,0-4.9,0.1-7.5,0.3c-2.6,0.2-5.1,0.7-7.3,1.4c-2.2,0.7-4.1,1.7-5.5,3c-1.5,1.3-2.2,3-2.2,5.2
	c0,1.4,0.3,2.6,0.9,3.5c0.6,0.9,1.4,1.7,2.4,2.3c1,0.6,2.2,1,3.3,1.2c1.2,0.2,2.5,0.4,3.7,0.4c5.1,0,9-1.4,11.6-4.1
	c2.6-2.7,3.9-6.4,3.9-11.1V303.8z M639.8,323.2h-0.4c-1.5,2.6-3.9,4.8-7.1,6.5c-3.3,1.7-7,2.5-11.2,2.5c-2.4,0-4.9-0.3-7.5-0.9
	c-2.5-0.6-5-1.6-7.1-3.1c-2.2-1.4-4-3.3-5.4-5.7c-1.4-2.3-2.2-5.2-2.2-8.7c0-4.4,1.3-8,3.8-10.6c2.5-2.6,5.7-4.6,9.7-6
	c3.9-1.4,8.3-2.3,13.1-2.8c4.7-0.4,9.4-0.7,14.1-0.7v-1.5c0-3.7-1.3-6.4-4-8.2c-2.7-1.8-5.9-2.6-9.5-2.6c-3.1,0-6.1,0.7-9,2
	c-2.9,1.3-5.3,2.9-7.1,4.8l-7.6-9c3.4-3.1,7.3-5.5,11.6-7c4.4-1.6,8.9-2.3,13.4-2.3c5.3,0,9.6,0.7,13,2.2c3.4,1.5,6.1,3.4,8.1,5.8
	c1.9,2.3,3.4,5.1,4.1,8c0.8,3,1.2,5.9,1.2,8.9v36h-13.8L639.8,323.2 M705.8,288c-1.2-1.6-2.9-3-5.2-4.1c-2.3-1.1-4.6-1.7-7-1.7
	c-2.7,0-5.1,0.6-7.1,1.7c-2,1.1-3.7,2.6-5.1,4.4c-1.4,1.8-2.4,3.9-3,6.1c-0.7,2.2-1,4.5-1,6.8c0,2.3,0.3,4.6,1,6.8
	c0.7,2.2,1.7,4.3,3.1,6.1c1.4,1.8,3.2,3.3,5.2,4.4c2.1,1.1,4.5,1.7,7.3,1.7c2.3,0,4.6-0.5,6.9-1.4c2.3-0.9,4.1-2.2,5.5-3.9l9.2,9.4
	c-2.5,2.6-5.6,4.7-9.4,6.1c-3.8,1.4-7.9,2.2-12.4,2.2c-4.4,0-8.5-0.7-12.4-2.1c-3.9-1.4-7.3-3.4-10.2-6.2c-2.9-2.7-5.2-6-6.9-9.9
	c-1.7-3.9-2.5-8.3-2.5-13.2c0-4.8,0.8-9.1,2.5-12.9c1.7-3.9,4-7.1,6.8-9.9c2.9-2.7,6.2-4.8,10-6.3c3.8-1.5,7.9-2.2,12.3-2.2
	c4.4,0,8.6,0.8,12.6,2.5c4.1,1.6,7.3,3.9,9.7,6.8L705.8,288 M272.8,243.8v-18.4l-57.5-37.4l-57.5,37.4v18.4l57.5-37.6L272.8,243.8
	 M257.1,210.3v-22.4h-15.8v12.1L257.1,210.3"/>
<path class="st2" d="M134,391.1h0.1l8.5-28.8h5.6l8.4,28.8h0.1l8-28.8h5.4l-10.6,36.2h-5.3l-8.8-29.1h-0.1l-8.8,29.1h-5.3
	l-10.6-36.2h5.5L134,391.1 M188.6,384.2c0-0.9-0.2-1.8-0.5-2.7c-0.3-0.8-0.7-1.5-1.3-2.2c-0.6-0.6-1.3-1.1-2.1-1.5
	c-0.8-0.4-1.8-0.5-2.9-0.5c-1.9,0-3.8,0.7-5.2,2c-0.7,0.6-1.2,1.4-1.6,2.2c-0.4,0.8-0.7,1.7-0.7,2.7H188.6z M193.5,386.1v0.8
	c0,0.3,0,0.5,0,0.8h-19.3c0,1,0.3,2,0.7,2.9s1,1.7,1.7,2.3c1.5,1.4,3.4,2.1,5.5,2.1c1.6,0,3-0.4,4.2-1.1c1.2-0.7,2.1-1.6,2.8-2.6
	l3.4,2.7c-1.3,1.7-2.8,3-4.6,3.8c-1.8,0.8-3.7,1.2-5.9,1.2c-1.8,0-3.5-0.3-5.1-0.9c-1.5-0.6-2.9-1.5-4-2.6c-1.1-1.1-2.1-2.5-2.7-4
	c-0.6-1.6-1-3.3-1-5.2c0-1.9,0.3-3.6,0.9-5.2c0.6-1.5,1.5-2.9,2.6-4.1c1.1-1.1,2.5-2,4-2.6c1.6-0.6,3.3-1,5-0.9
	c1.8,0,3.4,0.3,4.8,0.9c1.4,0.5,2.7,1.4,3.7,2.5c1,1.1,1.8,2.4,2.3,4C193.2,382.5,193.5,384.2,193.5,386.1 M218,374.9
	c1.3-0.9,2.9-1.4,4.8-1.4c1.6,0,3.1,0.4,4.4,1.1c1.3,0.8,2.3,2,3.1,3.7c0.8-1.6,2-2.8,3.4-3.6c1.5-0.8,3.1-1.3,4.8-1.3
	c1.6,0,2.9,0.3,4,0.8c1.1,0.5,2.1,1.2,2.8,2.1c0.7,0.9,1.3,1.9,1.7,3.1c0.4,1.2,0.5,2.5,0.5,3.8v15h-4.8V385c0-0.9-0.1-1.9-0.3-2.8
	c-0.1-0.8-0.4-1.6-0.9-2.4c-0.4-0.7-1-1.2-1.6-1.6c-0.7-0.4-1.6-0.6-2.6-0.6c-1.1,0-2,0.2-2.8,0.7c-0.8,0.4-1.4,1.1-1.9,1.8
	c-0.5,0.7-0.9,1.6-1.1,2.5c-0.2,0.9-0.3,1.9-0.3,2.8v13.1h-4.8V384c0-0.9-0.1-1.8-0.3-2.6c-0.1-0.7-0.4-1.4-0.9-2
	c-0.4-0.6-1-1-1.6-1.3c-0.6-0.3-1.4-0.5-2.4-0.5c-1.8,0-3.2,0.7-4.4,2.2c-1.2,1.4-1.8,3.4-1.8,5.8v12.9h-4.8v-19
	c0-0.6,0-1.5-0.1-2.5c0-0.9-0.1-1.8-0.2-2.7h4.5c0.1,1.3,0.2,2.7,0.2,4h0.2C215.7,376.9,216.7,375.8,218,374.9 M268.3,386.9
	c-1.2,0-2.4,0-3.7,0.2c-1.2,0.1-2.3,0.3-3.5,0.6c-1,0.3-1.9,0.8-2.6,1.4c-0.7,0.6-1,1.4-1,2.5c0,0.7,0.1,1.3,0.4,1.8
	c0.3,0.5,0.7,0.9,1.2,1.2c0.5,0.3,1,0.5,1.6,0.6s1.2,0.2,1.8,0.2c2.2,0,4-0.7,5.2-2c1.2-1.3,1.8-3,1.8-5.1v-1.3L268.3,386.9z
	 M269.5,382.8c0-1.8-0.5-3.1-1.6-4c-1.1-0.9-2.5-1.3-4.3-1.3c-1.3,0-2.6,0.3-3.9,0.8c-1.2,0.5-2.2,1.2-3,2l-2.6-3.1
	c1.2-1.1,2.6-2,4.4-2.7c1.8-0.7,3.7-1,5.5-1c1.7,0,3.2,0.2,4.5,0.7c1.3,0.5,2.3,1.2,3.1,2c0.8,0.9,1.5,1.9,1.8,3
	c0.4,1.2,0.6,2.5,0.6,3.7v10.6c0,0.8,0,1.7,0.1,2.6c0,0.9,0.1,1.6,0.3,2.2h-4.3c-0.3-1.1-0.4-2.3-0.4-3.5h-0.2c-0.9,1.3-2,2.3-3.3,3
	c-1.3,0.7-2.9,1.1-4.8,1.1c-1,0-2-0.1-3-0.4c-1-0.2-2-0.7-2.8-1.3c-0.9-0.6-1.6-1.4-2.1-2.3c-0.6-1-0.8-2.1-0.8-3.5
	c0-1.8,0.5-3.3,1.5-4.4c1-1.1,2.3-1.9,3.9-2.5c1.6-0.6,3.4-0.9,5.4-1.1c2-0.2,4.1-0.3,6.1-0.3V382.8 M285.8,384.8h0.2l10.2-10.5h6.4
	l-11.3,11l12.3,13.2h-6.6l-10.9-12.6h-0.2v12.6h-4.8v-38.6h4.8L285.8,384.8 M323.3,384.2c0-0.9-0.2-1.8-0.5-2.7
	c-0.3-0.8-0.7-1.5-1.3-2.2c-0.6-0.6-1.3-1.1-2.1-1.5c-0.8-0.4-1.8-0.5-2.9-0.5c-1.9,0-3.8,0.7-5.2,2c-0.7,0.6-1.2,1.4-1.6,2.2
	c-0.4,0.8-0.7,1.7-0.7,2.7H323.3z M328.2,386.1v0.8c0,0.3,0,0.5-0.1,0.8h-19.3c0,1,0.3,2,0.7,2.9c0.4,0.9,1,1.7,1.7,2.3
	c1.5,1.4,3.4,2.1,5.5,2.1c1.6,0,3.1-0.4,4.2-1.1c1.2-0.7,2.1-1.6,2.8-2.6l3.4,2.7c-1.3,1.7-2.8,3-4.6,3.8c-1.8,0.8-3.7,1.2-5.9,1.2
	c-1.8,0-3.5-0.3-5.1-0.9c-1.5-0.6-2.9-1.5-4-2.6c-1.1-1.1-2.1-2.5-2.7-4c-0.6-1.6-1-3.3-1-5.2c0-1.9,0.3-3.6,0.9-5.2
	c0.6-1.5,1.5-2.9,2.6-4.1c1.1-1.1,2.5-2,4-2.6c1.6-0.6,3.3-1,5-0.9c1.8,0,3.4,0.3,4.8,0.9c1.4,0.5,2.7,1.4,3.7,2.5
	c1,1.1,1.8,2.4,2.3,4C328,382.5,328.2,384.2,328.2,386.1 M350.1,377.9c0.6-1.2,1.6-2.2,3-3.1c1.4-0.9,3-1.3,4.7-1.3
	c1.6,0,2.9,0.3,4,0.8c1.1,0.5,2,1.2,2.8,2.1c0.7,0.9,1.3,1.9,1.7,3.1c0.4,1.2,0.5,2.5,0.5,3.8v15H362V385c0-0.9-0.1-1.9-0.2-2.8
	c-0.1-0.8-0.4-1.6-0.8-2.4c-0.4-0.7-1-1.2-1.7-1.6c-0.7-0.4-1.6-0.6-2.7-0.6c-1.9,0-3.5,0.7-4.7,2.2c-1.2,1.4-1.8,3.4-1.8,5.8v12.9
	h-4.8v-38.6h4.8v18.1L350.1,377.9 M393.2,386.3c0-1.2-0.2-2.3-0.5-3.3c-0.3-1-0.9-2-1.6-2.8c-0.7-0.8-1.6-1.5-2.5-1.9
	c-1-0.5-2.2-0.7-3.5-0.7c-1.3,0-2.5,0.2-3.5,0.7c-1,0.4-1.8,1.1-2.5,1.9c-0.7,0.8-1.2,1.8-1.6,2.8c-0.4,1.1-0.5,2.2-0.5,3.3
	c0,1.2,0.2,2.3,0.5,3.3c0.4,1.1,0.9,2,1.6,2.8c0.7,0.8,1.5,1.5,2.5,1.9c1,0.5,2.2,0.7,3.5,0.7c1.3,0,2.5-0.2,3.5-0.7
	c1-0.5,1.8-1.1,2.5-1.9c0.7-0.8,1.2-1.8,1.6-2.8C393,388.6,393.2,387.4,393.2,386.3z M398.2,386.3c0,1.9-0.3,3.6-1,5.2
	c-0.6,1.5-1.6,2.9-2.8,4.1c-1.2,1.2-2.6,2.1-4.2,2.7c-1.6,0.6-3.4,1-5.2,0.9c-1.8,0-3.5-0.3-5.2-0.9c-1.5-0.6-3-1.5-4.1-2.7
	c-1.2-1.2-2.1-2.5-2.7-4.1c-0.7-1.6-1-3.3-1-5.2c0-1.9,0.3-3.6,1-5.1c0.6-1.5,1.6-2.9,2.7-4c1.2-1.1,2.6-2,4.1-2.6
	c1.6-0.6,3.4-1,5.2-0.9c1.8,0,3.6,0.3,5.2,0.9c1.5,0.6,3,1.5,4.2,2.6c1.2,1.1,2.1,2.5,2.8,4C397.9,382.7,398.2,384.4,398.2,386.3
	 M411.2,374.9c1.3-0.9,2.9-1.4,4.8-1.4c1.6,0,3.1,0.4,4.4,1.1c1.3,0.8,2.3,2,3.1,3.7c0.8-1.6,2-2.8,3.4-3.6c1.5-0.8,3.1-1.3,4.8-1.3
	c1.6,0,2.9,0.3,4,0.8c1.1,0.5,2,1.2,2.8,2.1c0.8,0.9,1.3,2,1.7,3.1c0.4,1.2,0.5,2.5,0.5,3.8v15H436V385c0-0.9-0.1-1.9-0.3-2.8
	c-0.1-0.8-0.4-1.6-0.9-2.4c-0.4-0.7-1-1.2-1.6-1.6c-0.7-0.4-1.6-0.6-2.6-0.6c-1.1,0-2,0.2-2.8,0.7c-0.8,0.4-1.4,1.1-1.9,1.8
	c-0.5,0.8-0.9,1.6-1.1,2.5c-0.2,0.9-0.3,1.9-0.3,2.8v13.1h-4.8V384c0-0.9-0.1-1.8-0.3-2.6c-0.1-0.7-0.4-1.4-0.9-2
	c-0.4-0.6-1-1-1.6-1.3c-0.6-0.3-1.4-0.5-2.4-0.5c-1.8,0-3.2,0.7-4.4,2.2c-1.2,1.4-1.8,3.4-1.8,5.8v12.9h-4.8v-19
	c0-0.6,0-1.5-0.1-2.5c0-0.9-0.1-1.8-0.2-2.7h4.5c0.1,1.3,0.2,2.7,0.2,4h0.2C408.9,376.9,409.9,375.8,411.2,374.9 M465.4,384.2
	c0-0.9-0.2-1.8-0.5-2.7c-0.3-0.8-0.7-1.5-1.3-2.2c-0.6-0.6-1.3-1.1-2.1-1.5c-0.8-0.4-1.8-0.5-2.9-0.5c-1,0-2,0.2-2.9,0.5
	c-0.9,0.4-1.7,0.8-2.4,1.5s-1.2,1.3-1.6,2.2c-0.4,0.8-0.7,1.7-0.7,2.7H465.4z M470.3,386.1v0.8c0,0.3,0,0.5-0.1,0.8H451
	c0,1,0.3,2,0.7,2.9c0.4,0.9,1,1.7,1.7,2.3c1.5,1.4,3.4,2.1,5.5,2.1c1.6,0,3-0.4,4.2-1.1c1.2-0.7,2.1-1.6,2.8-2.6l3.4,2.7
	c-1.3,1.7-2.8,3-4.6,3.8c-1.8,0.8-3.7,1.2-5.9,1.2c-1.8,0-3.5-0.3-5.1-0.9c-1.5-0.6-2.9-1.5-4-2.6c-1.1-1.1-2.1-2.5-2.7-4
	c-0.6-1.6-1-3.3-1-5.2c0-1.9,0.3-3.6,0.9-5.2c0.6-1.5,1.5-2.9,2.6-4.1c1.1-1.1,2.5-2,4-2.6c1.6-0.6,3.3-1,5-0.9
	c1.8,0,3.4,0.3,4.8,0.9c1.4,0.5,2.7,1.4,3.7,2.5c1,1.1,1.8,2.4,2.3,4C470,382.5,470.3,384.2,470.3,386.1 M507.9,386.3
	c0-1.1-0.2-2.2-0.5-3.3c-0.3-1-0.8-2-1.5-2.8c-0.7-0.8-1.6-1.5-2.5-1.9c-1-0.5-2.2-0.7-3.5-0.7c-2.3,0-4.4,0.9-5.9,2.7
	c-0.7,0.8-1.3,1.8-1.7,2.8c-0.4,1.1-0.6,2.2-0.6,3.3c0,1.2,0.2,2.3,0.6,3.3c0.4,1.1,0.9,2,1.7,2.8s1.6,1.4,2.6,1.9
	c1,0.5,2.2,0.7,3.3,0.7c1.3,0,2.5-0.2,3.5-0.7c1-0.5,1.8-1.1,2.5-2c0.7-0.8,1.2-1.8,1.5-2.8C507.7,388.5,507.9,387.4,507.9,386.3z
	 M492,410.7h-4.8v-36.5h4.7v3.8h0.2c0.8-1.3,1.9-2.4,3.4-3.2c1.5-0.8,3.3-1.3,5.3-1.3c1.8,0,3.4,0.3,4.9,1c1.4,0.6,2.8,1.6,3.8,2.7
	c1.1,1.2,1.9,2.6,2.5,4.1c0.6,1.6,0.9,3.3,0.9,5c0,1.8-0.3,3.4-0.9,5c-0.5,1.5-1.4,2.9-2.4,4.1c-1.1,1.2-2.4,2.1-3.8,2.7
	c-1.5,0.7-3.2,1-5,1c-1.7,0-3.4-0.4-4.9-1.1c-1.5-0.8-2.7-1.8-3.6-3.2H492V410.7 M537.8,386.3c0-1.2-0.2-2.3-0.5-3.3
	c-0.3-1-0.9-2-1.6-2.8c-0.7-0.8-1.6-1.5-2.5-1.9c-1-0.5-2.2-0.7-3.5-0.7c-1.3,0-2.5,0.2-3.5,0.7c-1,0.4-1.8,1.1-2.5,1.9
	c-0.7,0.8-1.2,1.7-1.6,2.8c-0.4,1.1-0.5,2.2-0.5,3.3c0,1.2,0.2,2.3,0.5,3.3c0.3,1,0.9,2,1.6,2.8c0.7,0.8,1.5,1.5,2.5,1.9
	c1,0.5,2.2,0.7,3.5,0.7c1.3,0,2.5-0.2,3.5-0.7c1-0.5,1.8-1.1,2.5-1.9c0.7-0.8,1.2-1.8,1.6-2.8C537.6,388.6,537.8,387.4,537.8,386.3z
	 M542.8,386.3c0,1.9-0.3,3.6-1,5.2c-0.6,1.5-1.6,2.9-2.8,4.1c-1.2,1.2-2.6,2.1-4.2,2.7c-1.6,0.6-3.4,1-5.2,0.9
	c-1.8,0-3.5-0.3-5.2-0.9c-1.5-0.6-3-1.5-4.1-2.7c-1.2-1.2-2.1-2.5-2.7-4.1c-0.7-1.6-1-3.3-1-5.2c0-1.9,0.3-3.6,1-5.1
	c0.6-1.5,1.6-2.9,2.7-4c1.2-1.1,2.6-2,4.1-2.6c1.6-0.6,3.4-1,5.2-0.9c1.8,0,3.5,0.3,5.2,0.9c1.5,0.6,3,1.5,4.2,2.6
	c1.2,1.1,2.1,2.5,2.8,4C542.5,382.7,542.8,384.4,542.8,386.3 M561.3,380.4c-0.6-0.9-1.4-1.7-2.3-2.2c-1-0.6-2.2-0.9-3.3-0.8
	c-0.5,0-1.1,0.1-1.6,0.2c-0.5,0.1-1,0.3-1.5,0.6c-0.4,0.2-0.8,0.6-1,1c-0.3,0.4-0.4,0.9-0.4,1.5c0,1,0.5,1.8,1.4,2.3
	c0.9,0.5,2.3,0.9,4.1,1.4c1.1,0.3,2.2,0.6,3.2,1c0.9,0.3,1.8,0.8,2.6,1.4c0.7,0.6,1.3,1.2,1.7,2c0.4,0.8,0.6,1.7,0.6,2.8
	c0,1.4-0.3,2.6-0.8,3.6c-0.5,1-1.3,1.8-2.2,2.4c-0.9,0.6-2,1.1-3.1,1.4c-1.2,0.3-2.4,0.4-3.6,0.4c-1.9,0-3.7-0.4-5.4-1.1
	c-1.7-0.7-3.2-1.8-4.4-3.3l3.4-2.9c0.6,1,1.5,1.8,2.7,2.4c1.1,0.6,2.4,1,3.8,1c0.6,0,1.2-0.1,1.8-0.2c0.5-0.1,1.1-0.3,1.5-0.6
	c0.4-0.3,0.8-0.6,1.1-1.1c0.3-0.4,0.4-1,0.4-1.7c0-1.1-0.5-2-1.6-2.5c-1.1-0.5-2.6-1.1-4.7-1.5c-0.8-0.2-1.7-0.5-2.5-0.7
	c-0.8-0.3-1.6-0.7-2.3-1.2c-0.7-0.5-1.3-1.2-1.7-1.9c-0.4-0.8-0.6-1.7-0.6-2.8c0-1.3,0.3-2.4,0.8-3.4c0.5-0.9,1.2-1.7,2.1-2.3
	c0.9-0.6,1.9-1.1,2.9-1.3c1.1-0.3,2.2-0.4,3.4-0.4c1.7,0,3.4,0.3,5,1c1.6,0.7,2.9,1.7,3.8,3L561.3,380.4 M582.7,380.4
	c-0.6-0.9-1.4-1.7-2.3-2.2c-1-0.6-2.2-0.9-3.3-0.8c-0.5,0-1.1,0.1-1.6,0.2c-0.5,0.1-1,0.3-1.5,0.6c-0.4,0.2-0.8,0.6-1,1
	c-0.3,0.4-0.4,0.9-0.4,1.5c0,1,0.5,1.8,1.4,2.3c0.9,0.5,2.3,0.9,4.1,1.4c1.2,0.3,2.2,0.6,3.2,1c0.9,0.3,1.8,0.8,2.6,1.4
	c0.7,0.6,1.3,1.2,1.7,2c0.4,0.8,0.6,1.7,0.6,2.8c0,1.4-0.3,2.6-0.8,3.6c-0.5,1-1.3,1.8-2.2,2.4c-0.9,0.6-2,1.1-3.1,1.4
	c-1.2,0.3-2.3,0.4-3.6,0.4c-1.9,0-3.7-0.4-5.4-1.1c-1.7-0.7-3.2-1.8-4.4-3.3l3.4-2.9c0.6,1,1.5,1.8,2.7,2.4c1.1,0.6,2.4,1,3.8,1
	c0.6,0,1.2-0.1,1.8-0.2c0.6-0.1,1.1-0.3,1.5-0.6c0.4-0.3,0.8-0.6,1.1-1.1c0.3-0.4,0.4-1,0.4-1.7c0-1.1-0.5-2-1.6-2.5
	c-1.1-0.5-2.6-1.1-4.7-1.5c-0.8-0.2-1.7-0.5-2.5-0.7c-0.8-0.3-1.6-0.7-2.3-1.2c-0.7-0.5-1.3-1.2-1.7-1.9c-0.4-0.8-0.6-1.7-0.6-2.8
	c0-1.3,0.3-2.4,0.8-3.4c0.5-0.9,1.2-1.7,2.1-2.3c0.9-0.6,1.9-1.1,2.9-1.3c1.1-0.3,2.2-0.4,3.4-0.4c1.7,0,3.4,0.3,5,1
	c1.6,0.7,2.9,1.7,3.8,3L582.7,380.4 M595.9,398.5h-4.8v-24.2h4.8V398.5z M596.6,365.5c0,0.9-0.3,1.6-0.9,2.2
	c-0.6,0.6-1.4,0.9-2.3,0.9c-0.9,0-1.6-0.3-2.2-0.9c-0.6-0.6-0.9-1.4-0.9-2.2c0-0.9,0.3-1.6,0.9-2.2c0.6-0.6,1.4-0.9,2.2-0.9
	c0.9,0,1.6,0.3,2.3,0.9C596.3,363.9,596.6,364.6,596.6,365.5 M623.8,386.3c0-1.1-0.2-2.2-0.5-3.3c-0.3-1-0.8-2-1.5-2.8
	c-0.7-0.8-1.6-1.5-2.5-1.9c-1-0.5-2.2-0.7-3.5-0.7c-2.3,0-4.4,0.9-5.9,2.6c-0.7,0.8-1.3,1.8-1.7,2.8c-0.4,1.1-0.6,2.2-0.6,3.3
	c0,1.2,0.2,2.3,0.6,3.3c0.4,1.1,0.9,2,1.7,2.8c0.7,0.8,1.6,1.4,2.6,1.9c1,0.5,2.2,0.7,3.3,0.7c1.3,0,2.5-0.2,3.5-0.7
	c1-0.5,1.8-1.1,2.5-2c0.7-0.8,1.2-1.8,1.5-2.8C623.7,388.5,623.8,387.4,623.8,386.3z M607.7,394.6v3.8h-4.7v-38.6h4.8v18h0.2
	c0.8-1.2,2-2.2,3.4-3c1.5-0.8,3.2-1.3,5.2-1.3c1.8,0,3.4,0.3,4.9,1c1.4,0.6,2.8,1.6,3.8,2.7c1.1,1.2,1.9,2.6,2.5,4.1
	c0.6,1.6,0.9,3.2,0.9,5c0,1.8-0.3,3.4-0.9,5c-0.5,1.5-1.4,2.9-2.4,4.1c-1.1,1.2-2.4,2.1-3.8,2.7c-1.5,0.7-3.2,1-5,1
	c-1.7,0-3.4-0.4-4.9-1.2c-1.5-0.7-2.8-1.9-3.8-3.3H607.7 M638.6,398.5h-4.8v-38.6h4.8V398.5 M662.9,384.2c0-0.9-0.2-1.8-0.5-2.7
	c-0.3-0.8-0.7-1.5-1.3-2.2c-0.6-0.6-1.3-1.1-2.1-1.5c-0.8-0.4-1.8-0.5-2.9-0.5c-1,0-2,0.2-2.9,0.5c-0.9,0.4-1.7,0.8-2.4,1.5
	c-0.7,0.6-1.2,1.3-1.6,2.2c-0.4,0.8-0.7,1.7-0.7,2.7H662.9z M667.8,386.1v0.8c0,0.3,0,0.5-0.1,0.8h-19.3c0,1,0.3,2,0.7,2.9
	s1,1.7,1.7,2.3c1.5,1.4,3.4,2.1,5.5,2.1c1.6,0,3-0.4,4.2-1.1c1.2-0.7,2.1-1.6,2.8-2.6l3.4,2.7c-1.3,1.7-2.8,3-4.6,3.8
	c-1.8,0.8-3.7,1.2-5.9,1.2c-1.8,0-3.5-0.3-5.1-0.9c-1.5-0.6-2.9-1.5-4-2.6c-1.1-1.1-2.1-2.5-2.7-4c-0.6-1.6-1-3.3-1-5.2
	c0-1.9,0.3-3.6,0.9-5.2c0.6-1.5,1.5-2.9,2.6-4.1c1.1-1.1,2.5-2,4-2.6c1.6-0.6,3.3-1,5-0.9c1.8,0,3.4,0.3,4.8,0.9
	c1.4,0.5,2.7,1.4,3.7,2.5c1,1.1,1.8,2.4,2.3,4C667.6,382.5,667.8,384.2,667.8,386.1 M679.2,372.9h1.4c1.2,0,2.3-0.1,2.3-1.5
	c0-1.2-1-1.4-1.9-1.4h-1.8V372.9z M677.8,369h3.4c2.1,0,3.1,0.8,3.1,2.5c0,1.6-1,2.3-2.3,2.4l2.5,3.9H683l-2.4-3.8h-1.5v3.8h-1.4
	V369z M680.7,379.9c3.5,0,6.2-2.8,6.2-6.5c0-3.6-2.7-6.4-6.2-6.4c-3.5,0-6.3,2.8-6.3,6.4C674.5,377.1,677.2,379.9,680.7,379.9z
	 M680.7,365.9c4.1,0,7.6,3.3,7.6,7.5c0,4.2-3.3,7.6-7.5,7.6c0,0-0.1,0-0.1,0c-4.2,0-7.6-3.3-7.6-7.6
	C673.1,369.1,676.6,365.9,680.7,365.9"/>
</svg>
